<svg width="40" height="41" viewBox="0 0 40 41" fill="none" xmlns="http://www.w3.org/2000/svg">
<path d="M28.5355 11.2142C28.5355 15.9284 24.7139 19.7499 19.9998 19.7499C15.2856 19.7499 11.4641 15.9284 11.4641 11.2142C11.4641 6.50006 15.2856 2.6785 19.9998 2.6785C24.7139 2.6785 28.5355 6.50006 28.5355 11.2142Z" stroke="white" stroke-width="1.5"/>
<path d="M30.4855 30.3589L30.4855 30.3589C33.2503 32.3757 35.3687 35.1423 36.5967 38.321H3.4023C4.63036 35.1423 6.74875 32.3756 9.51352 30.3589L9.51355 30.3589C12.5586 28.1374 16.2303 26.9405 19.9995 26.9405C23.7686 26.9405 27.4404 28.1374 30.4855 30.3589Z" stroke="white" stroke-width="1.5"/>
<path d="M19.9998 20.4999C25.1281 20.4999 29.2855 16.3426 29.2855 11.2142C29.2855 6.08585 25.1281 1.9285 19.9998 1.9285C14.8714 1.9285 10.7141 6.08585 10.7141 11.2142C10.7141 16.3426 14.8714 20.4999 19.9998 20.4999Z" stroke="white" stroke-width="1.5" stroke-linecap="round" stroke-linejoin="round"/>
<path d="M37.6566 39.071C36.4572 35.3307 34.1009 32.0678 30.9275 29.7529C27.754 27.4379 23.9275 26.1905 19.9995 26.1905C16.0715 26.1905 12.2449 27.4379 9.07153 29.7529C5.89813 32.0678 3.54184 35.3307 2.34235 39.071H37.6566Z" stroke="white" stroke-width="1.5" stroke-linecap="round" stroke-linejoin="round"/>
</svg>
